---
layout: anime

title: Gugure! Kokkuri-san
image: https://i.imgur.com/RXQaulh.gif
mal: 23251
anidb: 10530
r720: false
r1080: true

desc: >-
  Well, this was a weird comedy. It had some good moments though. Because who doesn't love a block-eyed girl who can't smile?
  <br><br>
  This release takes Beatrice-Raws and uses Doki subtitles. I didn't do much with the subtitles since not much modification was really needed. Just a few edits here and there.

status: Complete
groups: Beatrice-Raws, Doki
size1080: ~950 MB / Episode @ 1080p (1920x1080)
vidinfo: .mkv, h264 10-bit

audio1080a: Japanese 2.0ch FLAC (Main Dialogue)
subtitle1: English Dialogue (.ass) [SallySubs]

nyaa1080: https://nyaa.si/view/1015148
anidex1080: https://anidex.info/torrent/128067
at1080: https://animetosho.org/view/cyc-gugure-kokkuri-san-specials-bd-1080p-hi10-x264-flac.d128067
ant1080: https://animetorrents.me/torrent-details.php?torid=34567
ab1080: https://animebytes.tv/torrents.php?id=21327&torrentid=352555
abs1080: https://animebytes.tv/torrents.php?id=36662&torrentid=352557
abstype1080: Specials

github: https://github.com/cyc-anime/Gugure-Kokkuri-san
---
General
Unique ID                                : 213196557799680864876816735129547010694 (0xA06429D936B8FCE4A86092C70E6B7286)
Complete name                            : [CyC] Gugure! Kokkuri-san 01 (BD 1080p Hi10 x264 FLAC) [7EA2CCE8].mkv
Format                                   : Matroska
Format version                           : Version 4 / Version 2
File size                                : 990 MiB
Duration                                 : 24 min 27 s
Overall bit rate mode                    : Variable
Overall bit rate                         : 5 659 kb/s
Movie name                               : Doll Girl Meets Kokkuri-san!
Encoded date                             : UTC 2018-03-01 16:13:40
Writing application                      : mkvmerge v9.7.1 ('Pandemonium') 64bit
Writing library                          : libebml v1.3.4 + libmatroska v1.4.5
Attachments                              : CronosPro-Bold_1.otf / EraserDust.TTF / Franklin Gothic Medium.ttf / Hyouka-Brush2 Bold.ttf / Jennifer's Hand Writing.ttf / LT_CorinthianMedium.ttf / Merienda One.ttf / mikachan_1.ttf / VAG Rounded BT.TTF / VestaPro-Bold.otf / VestaPro-BoldItalic.otf / Yikes!.TTF / ZeroGene_1.ttf / Alberta Regular_1.ttf / Baar Sophia.TTF / CandelaBold.otf / Chinacat_0.ttf

Video
ID                                       : 1
Format                                   : AVC
Format/Info                              : Advanced Video Codec
Format profile                           : High 10@L5
Format settings, CABAC                   : Yes
Format settings, RefFrames               : 4 frames
Codec ID                                 : V_MPEG4/ISO/AVC
Duration                                 : 24 min 26 s
Bit rate                                 : 4 955 kb/s
Width                                    : 1 920 pixels
Height                                   : 1 080 pixels
Display aspect ratio                     : 16:9
Frame rate mode                          : Constant
Frame rate                               : 23.976 (24000/1001) FPS
Color space                              : YUV
Chroma subsampling                       : 4:2:0
Bit depth                                : 10 bits
Scan type                                : Progressive
Bits/(Pixel*Frame)                       : 0.100
Stream size                              : 866 MiB (88%)
Writing library                          : x264 core 148 r2694 3b70645
Encoding settings                        : cabac=1 / ref=4 / deblock=1:-2:-2 / analyse=0x3:0x133 / me=umh / subme=9 / psy=1 / psy_rd=1.00:0.00 / mixed_ref=1 / me_range=32 / chroma_me=1 / trellis=2 / 8x8dct=1 / cqm=0 / deadzone=21,11 / fast_pskip=1 / chroma_qp_offset=-2 / threads=12 / lookahead_threads=2 / sliced_threads=0 / nr=0 / decimate=1 / interlaced=0 / bluray_compat=0 / constrained_intra=0 / bframes=7 / b_pyramid=2 / b_adapt=2 / b_bias=0 / direct=1 / weightb=1 / open_gop=0 / weightp=2 / keyint=250 / keyint_min=23 / scenecut=40 / intra_refresh=0 / rc=crf / mbtree=0 / crf=16.5 / qcomp=0.72 / qpmin=0 / qpmax=81 / qpstep=4 / ip_ratio=1.40 / pb_ratio=1.30 / aq=1:1.00
Language                                 : Japanese
Default                                  : Yes
Forced                                   : No
Color range                              : Limited
Color primaries                          : BT.709
Transfer characteristics                 : BT.709
Matrix coefficients                      : BT.709

Audio
ID                                       : 2
Format                                   : FLAC
Format/Info                              : Free Lossless Audio Codec
Codec ID                                 : A_FLAC
Duration                                 : 24 min 26 s
Bit rate mode                            : Variable
Bit rate                                 : 651 kb/s
Channel(s)                               : 2 channels
Channel positions                        : Front: L R
Sampling rate                            : 48.0 kHz
Frame rate                               : 11.719 FPS (4096 SPF)
Bit depth                                : 16 bits
Stream size                              : 114 MiB (12%)
Writing library                          : libFLAC 1.3.1 (UTC 2014-11-25)
Language                                 : Japanese
Default                                  : Yes
Forced                                   : No

Text
ID                                       : 3
Format                                   : ASS
Codec ID                                 : S_TEXT/ASS
Codec ID/Info                            : Advanced Sub Station Alpha
Duration                                 : 24 min 0 s
Bit rate                                 : 684 b/s
Count of elements                        : 1353
Compression mode                         : Lossless
Stream size                              : 120 KiB (0%)
Title                                    : Doki
Language                                 : English
Default                                  : Yes
Forced                                   : No

Menu
00:00:00.000                             : en:Main
00:22:30.848                             : en:OP
00:24:00.928                             : en:Epilogue
00:24:15.943                             : en:Preview